# xmcd CD database file
#
# Track frame offsets:
#	150
#	13198
#	27078
#	42705
#	58073
#	71915
#	86820
#	101205
#	116450
#	131373
#	146200
#	162285
#	177670
#	191155
#	206723
#	219218
#	233590
#	247883
#
# Disc length: 3496 seconds
#
# Revision: 4
# Processed by: cddbd v1.5.2PL0 Copyright (c) Steve Scherf et al.
# Submitted via: CDex 1.70
#
DISCID=100da612
DTITLE=????? - Unknown CD for MusicBrainz and FreeDB
DYEAR=1900
DGENRE=Kayokyoku
TTITLE0=?????
TTITLE1=?????
TTITLE2=??????
TTITLE3=?????
TTITLE4=???????
TTITLE5=??????
TTITLE6=?????
TTITLE7=??????
TTITLE8=???????
TTITLE9=??????????
TTITLE10=????
TTITLE11=?????
TTITLE12=???????????
TTITLE13=???????
TTITLE14=????????
TTITLE15=??????????
TTITLE16=??????
TTITLE17=???????
EXTD=
EXTT0=
EXTT1=
EXTT2=
EXTT3=
EXTT4=
EXTT5=
EXTT6=
EXTT7=
EXTT8=
EXTT9=
EXTT10=
EXTT11=
EXTT12=
EXTT13=
EXTT14=
EXTT15=
EXTT16=
EXTT17=
PLAYORDER=
